<?xml version="1.0" encoding="utf-8"?>
<!-- Generator: Adobe Illustrator 22.0.1, SVG Export Plug-In . SVG Version: 6.00 Build 0)  -->
<svg version="1.1" id="Слой_1" xmlns="http://www.w3.org/2000/svg" xmlns:xlink="http://www.w3.org/1999/xlink" x="0px" y="0px"
	 viewBox="0 0 512 512" style="enable-background:new 0 0 512 512;" xml:space="preserve">
<style type="text/css">
	.st0{fill:#F2B186;}
	.st1{fill:#C17F72;}
	.st2{fill:#FCD9E7;}
	.st3{fill:#333333;}
	.st4{fill:url(#SVGID_1_);}
</style>
<path class="st0" d="M321.7,466.8H193.1c-64.4,0-116.5-52.2-116.5-116.5v-76.5c46.1,11.6,108.1,22.5,181.6,22.4
	c72.8-0.1,134.2-10.9,180-22.4c0,25.5,0,51,0,76.5C438.2,414.6,386.1,466.8,321.7,466.8z"/>
<path class="st1" d="M373,444.5c14.7-13.5,20.2-28.7,25-42c9.3-25.7,9.6-50.2,10-88c0.1-6.2,0-11.3,0-14.5c-3.8,1.2-9.4,3-16.1,4.8
	c-33,9.2-75.2,16.8-150.4,15.7c-124.9-1.9-148.1-25.1-155-33c-4.7-5.3-7.9-10.3-9.9-13.7c48.5-10.5,110.6-19.4,182.9-19.3
	c70.4,0.2,131,9,178.7,19.3c0,26.9-0.1,53.8-0.1,80.8c-0.4,8.8-3,46.8-34.1,78c-33.1,33.2-74.2,34.3-82.3,34.3
	C331.9,465.7,354.1,461.8,373,444.5z"/>
<path class="st2" d="M438.2,273.8C352.3,300,257,300.3,257,300.3c-19.4,0.1-111.3-0.2-180.4-26.5c-6.6-2.5-21-8.3-26.5-21.6
	c-9.1-21.9,9.5-54.5,33.9-69.8c9.4-5.9,18.6-8.5,24.9-9.8c3.7-9.7,16.3-38.8,48.2-58c22.9-13.8,45-16,55.9-16.3
	c0.2-2.2,0.7-10.4-4.9-18c-7.8-10.6-20.7-10.6-22-10.6c7.5-2.9,17.9-5.7,30.2-5.3c38,1.3,61.5,32,65.3,37.1c10.2-0.5,40.9-0.5,71,20
	c25.8,17.5,37.3,40.7,41.5,50.5c10.3,1.9,28.8,7.1,45,22.2c15.1,14,33.9,41.8,24.9,61.2C458.4,267.4,444.4,271.9,438.2,273.8z"/>
<path class="st3" d="M194.6,395.8c1,1.8,19.8,34.4,57.6,35.9c26.2,1.1,51-13.2,63.7-36.7"/>
<circle class="st3" cx="155.1" cy="349.5" r="16"/>
<circle class="st3" cx="361.5" cy="349.5" r="16"/>
<linearGradient id="SVGID_1_" gradientUnits="userSpaceOnUse" x1="286.9677" y1="177.7654" x2="415.6795" y2="177.7654">
	<stop  offset="0" style="stop-color:#BA9BC9;stop-opacity:0"/>
	<stop  offset="0" style="stop-color:#FFFFFF;stop-opacity:0.6"/>
</linearGradient>
<path class="st4" d="M287,197.9c8.7,0.9,51.6,4.4,80.6-25c6.9-7,11.7-14.5,15.1-21.4c1.9,2.6,3.9,5.6,5.8,9
	c2.3,4.1,4.1,7.9,5.5,11.4c3,0.6,6.3,1.3,9.7,2.3c4.5,1.3,8.5,2.9,12,4.4c-11.4,7.3-31,18-57.7,22.7
	C326.5,207.2,300.7,201.8,287,197.9z"/>
<path d="M566.5,444"/>
<path class="st1" d="M652.5,345.5"/>
<path class="st1" d="M683.5,361.5"/>
<path class="st1" d="M671.5,340"/>
</svg>
